<svg width="17" height="19" viewBox="0 0 17 19" fill="none" xmlns="http://www.w3.org/2000/svg">
<path d="M0 19V16.3711H17V19H0ZM1.7425 14.0681V11.1785L9.66875 3.07464L12.495 5.96424L4.56875 14.0681H1.7425ZM3.0175 12.7646H3.97375L10.6675 5.92078L9.71125 4.9431L3.0175 11.7869V12.7646ZM13.43 5.00828L10.6038 2.11869L12.3888 0.293679C12.5446 0.105385 12.7217 0.00761668 12.92 0.000374591C13.1183 -0.0068675 13.3167 0.0909006 13.515 0.293679L15.1725 1.98833C15.3567 2.17662 15.4487 2.37578 15.4487 2.5858C15.4487 2.79582 15.3708 2.99498 15.215 3.18327L13.43 5.00828Z" fill="#2288E7"/>
</svg>
